<svg width="200" height="200" viewBox="0 0 200 200" fill="none" xmlns="http://www.w3.org/2000/svg">
<g clip-path="url(#clip0_201_366)">
<path d="M125.883 3.40759L102.071 92.2728" stroke="white" stroke-width="2"/>
</g>
<g clip-path="url(#clip1_201_366)">
<path d="M138.269 7.61218L103.062 92.6091" stroke="white" stroke-width="2"/>
</g>
<g clip-path="url(#clip2_201_366)">
<path d="M150.001 13.3976L104.001 93.0719" stroke="white" stroke-width="2"/>
</g>
<g clip-path="url(#clip3_201_366)">
<path d="M160.877 20.6648L104.871 93.6533" stroke="white" stroke-width="2"/>
</g>
<g clip-path="url(#clip4_201_366)">
<path d="M170.712 29.2896L105.658 94.3433" stroke="white" stroke-width="2"/>
</g>
<g clip-path="url(#clip5_201_366)">
<path d="M179.336 39.1239L106.348 95.1299" stroke="white" stroke-width="2"/>
</g>
<g clip-path="url(#clip6_201_366)">
<path d="M186.603 50.0001L106.929 96.0001" stroke="white" stroke-width="2"/>
</g>
<g clip-path="url(#clip7_201_366)">
<path d="M192.389 61.7318L107.392 96.9386" stroke="white" stroke-width="2"/>
</g>
<g clip-path="url(#clip8_201_366)">
<path d="M196.593 74.1183L107.728 97.9296" stroke="white" stroke-width="2"/>
</g>
<g clip-path="url(#clip9_201_366)">
<path d="M199.145 86.9475L107.932 98.9559" stroke="white" stroke-width="2"/>
</g>
<g clip-path="url(#clip10_201_366)">
<path d="M200.001 100L108.001 100" stroke="white" stroke-width="2"/>
</g>
<g clip-path="url(#clip11_201_366)">
<path d="M199.145 113.053L107.932 101.044" stroke="white" stroke-width="2"/>
</g>
<g clip-path="url(#clip12_201_366)">
<path d="M196.593 125.882L107.728 102.071" stroke="white" stroke-width="2"/>
</g>
<g clip-path="url(#clip13_201_366)">
<path d="M192.389 138.268L107.392 103.062" stroke="white" stroke-width="2"/>
</g>
<g clip-path="url(#clip14_201_366)">
<path d="M186.603 150L106.929 104" stroke="white" stroke-width="2"/>
</g>
<g clip-path="url(#clip15_201_366)">
<path d="M179.336 160.876L106.347 104.87" stroke="white" stroke-width="2"/>
</g>
<g clip-path="url(#clip16_201_366)">
<path d="M170.711 170.711L105.657 105.657" stroke="white" stroke-width="2"/>
</g>
<g clip-path="url(#clip17_201_366)">
<path d="M160.877 179.335L104.87 106.347" stroke="white" stroke-width="2"/>
</g>
<g clip-path="url(#clip18_201_366)">
<path d="M150 186.603L104 106.928" stroke="white" stroke-width="2"/>
</g>
<g clip-path="url(#clip19_201_366)">
<path d="M138.269 192.388L103.062 107.391" stroke="white" stroke-width="2"/>
</g>
<g clip-path="url(#clip20_201_366)">
<path d="M125.882 196.593L102.071 107.727" stroke="white" stroke-width="2"/>
</g>
<g clip-path="url(#clip21_201_366)">
<path d="M113.053 199.145L101.045 107.932" stroke="white" stroke-width="2"/>
</g>
<g clip-path="url(#clip22_201_366)">
<path d="M100 200L100 108" stroke="white" stroke-width="2"/>
</g>
<g clip-path="url(#clip23_201_366)">
<path d="M86.9477 199.145L98.9561 107.932" stroke="white" stroke-width="2"/>
</g>
<g clip-path="url(#clip24_201_366)">
<path d="M74.1182 196.593L97.9296 107.727" stroke="white" stroke-width="2"/>
</g>
<g clip-path="url(#clip25_201_366)">
<path d="M61.7318 192.388L96.9387 107.391" stroke="white" stroke-width="2"/>
</g>
<g clip-path="url(#clip26_201_366)">
<path d="M50.0001 186.603L96.0001 106.928" stroke="white" stroke-width="2"/>
</g>
<g clip-path="url(#clip27_201_366)">
<path d="M39.1238 179.335L95.1299 106.347" stroke="white" stroke-width="2"/>
</g>
<g clip-path="url(#clip28_201_366)">
<path d="M29.2893 170.711L94.3432 105.657" stroke="white" stroke-width="2"/>
</g>
<g clip-path="url(#clip29_201_366)">
<path d="M20.6647 160.876L93.6532 104.87" stroke="white" stroke-width="2"/>
</g>
<g clip-path="url(#clip30_201_366)">
<path d="M13.3975 150L93.0718 104" stroke="white" stroke-width="2"/>
</g>
<g clip-path="url(#clip31_201_366)">
<path d="M7.61209 138.268L92.609 103.062" stroke="white" stroke-width="2"/>
</g>
<g clip-path="url(#clip32_201_366)">
<path d="M3.40738 125.882L92.2726 102.07" stroke="white" stroke-width="2"/>
</g>
<g clip-path="url(#clip33_201_366)">
<path d="M0.855621 113.053L92.0686 101.044" stroke="white" stroke-width="2"/>
</g>
<g clip-path="url(#clip34_201_366)">
<path d="M0 100L92 100" stroke="white" stroke-width="2"/>
</g>
<g clip-path="url(#clip35_201_366)">
<path d="M0.85556 86.9474L92.0685 98.9558" stroke="white" stroke-width="2"/>
</g>
<g clip-path="url(#clip36_201_366)">
<path d="M3.40756 74.118L92.2727 97.9294" stroke="white" stroke-width="2"/>
</g>
<g clip-path="url(#clip37_201_366)">
<path d="M7.61227 61.7318L92.6092 96.9387" stroke="white" stroke-width="2"/>
</g>
<g clip-path="url(#clip38_201_366)">
<path d="M13.3977 50.0001L93.072 96.0001" stroke="white" stroke-width="2"/>
</g>
<g clip-path="url(#clip39_201_366)">
<path d="M20.6649 39.124L93.6534 95.1301" stroke="white" stroke-width="2"/>
</g>
<g clip-path="url(#clip40_201_366)">
<path d="M29.2895 29.2894L94.3433 94.3433" stroke="white" stroke-width="2"/>
</g>
<g clip-path="url(#clip41_201_366)">
<path d="M39.124 20.6647L95.13 93.6532" stroke="white" stroke-width="2"/>
</g>
<g clip-path="url(#clip42_201_366)">
<path d="M50.0002 13.3976L96.0002 93.0719" stroke="white" stroke-width="2"/>
</g>
<g clip-path="url(#clip43_201_366)">
<path d="M61.7318 7.61218L96.9387 92.6091" stroke="white" stroke-width="2"/>
</g>
<g clip-path="url(#clip44_201_366)">
<path d="M74.1183 3.40747L97.9297 92.2727" stroke="white" stroke-width="2"/>
</g>
<g clip-path="url(#clip45_201_366)">
<path d="M86.9477 0.855591L98.9561 92.0685" stroke="white" stroke-width="2"/>
</g>
<g clip-path="url(#clip46_201_366)">
<path d="M100 0.00012207V92.0001" stroke="white" stroke-width="2"/>
</g>
<g clip-path="url(#clip47_201_366)">
<path d="M113.053 0.855713L101.045 92.0686" stroke="white" stroke-width="2"/>
</g>
<defs>
<clipPath id="clip0_201_366">
<rect width="6" height="200" fill="white" transform="translate(122.985 2.6311) rotate(15)"/>
</clipPath>
<clipPath id="clip1_201_366">
<rect width="6" height="200" fill="white" transform="translate(135.497 6.46411) rotate(22.5)"/>
</clipPath>
<clipPath id="clip2_201_366">
<rect width="6" height="200" fill="white" transform="translate(147.403 11.8976) rotate(30)"/>
</clipPath>
<clipPath id="clip3_201_366">
<rect width="6" height="200" fill="white" transform="translate(158.497 18.8385) rotate(37.5)"/>
</clipPath>
<clipPath id="clip4_201_366">
<rect width="6" height="200" fill="white" transform="translate(168.59 27.1682) rotate(45)"/>
</clipPath>
<clipPath id="clip5_201_366">
<rect width="6" height="200" fill="white" transform="translate(177.51 36.7439) rotate(52.5)"/>
</clipPath>
<clipPath id="clip6_201_366">
<rect width="6" height="200" fill="white" transform="translate(185.103 47.4021) rotate(60)"/>
</clipPath>
<clipPath id="clip7_201_366">
<rect width="6" height="200" fill="white" transform="translate(191.241 58.9602) rotate(67.5)"/>
</clipPath>
<clipPath id="clip8_201_366">
<rect width="6" height="200" fill="white" transform="translate(195.817 71.2205) rotate(75)"/>
</clipPath>
<clipPath id="clip9_201_366">
<rect width="6" height="200" fill="white" transform="translate(198.754 83.9731) rotate(82.5)"/>
</clipPath>
<clipPath id="clip10_201_366">
<rect width="6" height="200" fill="white" transform="translate(200.001 97) rotate(90)"/>
</clipPath>
<clipPath id="clip11_201_366">
<rect width="6" height="200" fill="white" transform="translate(199.537 110.078) rotate(97.5)"/>
</clipPath>
<clipPath id="clip12_201_366">
<rect width="6" height="200" fill="white" transform="translate(197.37 122.984) rotate(105)"/>
</clipPath>
<clipPath id="clip13_201_366">
<rect width="6" height="200" fill="white" transform="translate(193.537 135.497) rotate(112.5)"/>
</clipPath>
<clipPath id="clip14_201_366">
<rect width="6" height="200" fill="white" transform="translate(188.103 147.402) rotate(120)"/>
</clipPath>
<clipPath id="clip15_201_366">
<rect width="6" height="200" fill="white" transform="translate(181.162 158.496) rotate(127.5)"/>
</clipPath>
<clipPath id="clip16_201_366">
<rect width="6" height="200" fill="white" transform="translate(172.833 168.589) rotate(135)"/>
</clipPath>
<clipPath id="clip17_201_366">
<rect width="6" height="200" fill="white" transform="translate(163.257 177.509) rotate(142.5)"/>
</clipPath>
<clipPath id="clip18_201_366">
<rect width="6" height="200" fill="white" transform="translate(152.599 185.103) rotate(150)"/>
</clipPath>
<clipPath id="clip19_201_366">
<rect width="6" height="200" fill="white" transform="translate(141.04 191.24) rotate(157.5)"/>
</clipPath>
<clipPath id="clip20_201_366">
<rect width="6" height="200" fill="white" transform="translate(128.78 195.816) rotate(165)"/>
</clipPath>
<clipPath id="clip21_201_366">
<rect width="6" height="200" fill="white" transform="translate(116.027 198.753) rotate(172.5)"/>
</clipPath>
<clipPath id="clip22_201_366">
<rect width="6" height="200" fill="white" transform="translate(103 200) rotate(-180)"/>
</clipPath>
<clipPath id="clip23_201_366">
<rect width="6" height="200" fill="white" transform="translate(89.922 199.536) rotate(-172.5)"/>
</clipPath>
<clipPath id="clip24_201_366">
<rect width="6" height="200" fill="white" transform="translate(77.016 197.369) rotate(-165)"/>
</clipPath>
<clipPath id="clip25_201_366">
<rect width="6" height="200" fill="white" transform="translate(64.5034 193.536) rotate(-157.5)"/>
</clipPath>
<clipPath id="clip26_201_366">
<rect width="6" height="200" fill="white" transform="translate(52.5981 188.103) rotate(-150)"/>
</clipPath>
<clipPath id="clip27_201_366">
<rect width="6" height="200" fill="white" transform="translate(41.5039 181.162) rotate(-142.5)"/>
</clipPath>
<clipPath id="clip28_201_366">
<rect width="6" height="200" fill="white" transform="translate(31.4106 172.832) rotate(-135)"/>
</clipPath>
<clipPath id="clip29_201_366">
<rect width="6" height="200" fill="white" transform="translate(22.491 163.256) rotate(-127.5)"/>
</clipPath>
<clipPath id="clip30_201_366">
<rect width="6" height="200" fill="white" transform="translate(14.8975 152.598) rotate(-120)"/>
</clipPath>
<clipPath id="clip31_201_366">
<rect width="6" height="200" fill="white" transform="translate(8.76013 141.04) rotate(-112.5)"/>
</clipPath>
<clipPath id="clip32_201_366">
<rect width="6" height="200" fill="white" transform="translate(4.18384 128.78) rotate(-105)"/>
</clipPath>
<clipPath id="clip33_201_366">
<rect width="6" height="200" fill="white" transform="translate(1.24719 116.027) rotate(-97.5)"/>
</clipPath>
<clipPath id="clip34_201_366">
<rect width="6" height="200" fill="white" transform="translate(0 103) rotate(-90)"/>
</clipPath>
<clipPath id="clip35_201_366">
<rect width="6" height="200" fill="white" transform="translate(0.463989 89.9218) rotate(-82.5)"/>
</clipPath>
<clipPath id="clip36_201_366">
<rect width="6" height="200" fill="white" transform="translate(2.6311 77.0159) rotate(-75)"/>
</clipPath>
<clipPath id="clip37_201_366">
<rect width="6" height="200" fill="white" transform="translate(6.46423 64.5034) rotate(-67.5)"/>
</clipPath>
<clipPath id="clip38_201_366">
<rect width="6" height="200" fill="white" transform="translate(11.8977 52.5981) rotate(-60)"/>
</clipPath>
<clipPath id="clip39_201_366">
<rect width="6" height="200" fill="white" transform="translate(18.8386 41.504) rotate(-52.5)"/>
</clipPath>
<clipPath id="clip40_201_366">
<rect width="6" height="200" fill="white" transform="translate(27.1682 31.4108) rotate(-45)"/>
</clipPath>
<clipPath id="clip41_201_366">
<rect width="6" height="200" fill="white" transform="translate(36.7439 22.491) rotate(-37.5)"/>
</clipPath>
<clipPath id="clip42_201_366">
<rect width="6" height="200" fill="white" transform="translate(47.4021 14.8976) rotate(-30)"/>
</clipPath>
<clipPath id="clip43_201_366">
<rect width="6" height="200" fill="white" transform="translate(58.9602 8.76025) rotate(-22.5)"/>
</clipPath>
<clipPath id="clip44_201_366">
<rect width="6" height="200" fill="white" transform="translate(71.2206 4.18396) rotate(-15)"/>
</clipPath>
<clipPath id="clip45_201_366">
<rect width="6" height="200" fill="white" transform="translate(83.9734 1.24719) rotate(-7.5)"/>
</clipPath>
<clipPath id="clip46_201_366">
<rect width="6" height="200" fill="white" transform="translate(97.0004 0.00012207)"/>
</clipPath>
<clipPath id="clip47_201_366">
<rect width="6" height="200" fill="white" transform="translate(110.079 0.464111) rotate(7.50004)"/>
</clipPath>
</defs>
</svg>
