<svg width="318" height="314" viewBox="0 0 318 314" fill="none" xmlns="http://www.w3.org/2000/svg">
<g filter="url(#filter0_d_101_785)">
<path d="M16.9463 25.8923C24.0963 25.8923 29.8922 20.0961 29.8922 12.9462C29.8922 5.79619 24.0963 0 16.9463 0C9.79638 0 4 5.79619 4 12.9462C4 20.0961 9.79638 25.8923 16.9463 25.8923Z" fill="#B76FEF"/>
<path d="M73.5372 25.8923C80.6871 25.8923 86.4835 20.0961 86.4835 12.9462C86.4835 5.79619 80.6871 0 73.5372 0C66.3872 0 60.5913 5.79619 60.5913 12.9462C60.5913 20.0961 66.3872 25.8923 73.5372 25.8923Z" fill="#B76FEF"/>
<path d="M130.127 25.8923C137.276 25.8923 143.072 20.0961 143.072 12.9462C143.072 5.79619 137.276 0 130.127 0C122.977 0 117.18 5.79619 117.18 12.9462C117.18 20.0961 122.977 25.8923 130.127 25.8923Z" fill="#B76FEF"/>
<path d="M186.815 25.8923C193.965 25.8923 199.761 20.0961 199.761 12.9462C199.761 5.79619 193.965 0 186.815 0C179.665 0 173.869 5.79619 173.869 12.9462C173.869 20.0961 179.665 25.8923 186.815 25.8923Z" fill="#B76FEF"/>
<path d="M243.407 25.8923C250.557 25.8923 256.353 20.0961 256.353 12.9462C256.353 5.79619 250.557 0 243.407 0C236.257 0 230.46 5.79619 230.46 12.9462C230.46 20.0961 236.257 25.8923 243.407 25.8923Z" fill="#B76FEF"/>
<path d="M300.094 25.8923C307.244 25.8923 313.04 20.0961 313.04 12.9462C313.04 5.79619 307.244 0 300.094 0C292.944 0 287.148 5.79619 287.148 12.9462C287.148 20.0961 292.944 25.8923 300.094 25.8923Z" fill="#B76FEF"/>
<path d="M16.9463 72.5769C24.0963 72.5769 29.8922 66.7807 29.8922 59.6307C29.8922 52.4808 24.0963 46.6846 16.9463 46.6846C9.79638 46.6846 4 52.4808 4 59.6307C4 66.7807 9.79638 72.5769 16.9463 72.5769Z" fill="#B76FEF"/>
<path d="M73.5372 72.5769C80.6871 72.5769 86.4835 66.7807 86.4835 59.6307C86.4835 52.4808 80.6871 46.6846 73.5372 46.6846C66.3872 46.6846 60.5913 52.4808 60.5913 59.6307C60.5913 66.7807 66.3872 72.5769 73.5372 72.5769Z" fill="#B76FEF"/>
<path d="M130.127 72.5769C137.276 72.5769 143.072 66.7807 143.072 59.6307C143.072 52.4808 137.276 46.6846 130.127 46.6846C122.977 46.6846 117.18 52.4808 117.18 59.6307C117.18 66.7807 122.977 72.5769 130.127 72.5769Z" fill="#B76FEF"/>
<path d="M186.815 72.5769C193.965 72.5769 199.761 66.7807 199.761 59.6307C199.761 52.4808 193.965 46.6846 186.815 46.6846C179.665 46.6846 173.869 52.4808 173.869 59.6307C173.869 66.7807 179.665 72.5769 186.815 72.5769Z" fill="#B76FEF"/>
<path d="M243.407 72.5769C250.557 72.5769 256.353 66.7807 256.353 59.6307C256.353 52.4808 250.557 46.6846 243.407 46.6846C236.257 46.6846 230.46 52.4808 230.46 59.6307C230.46 66.7807 236.257 72.5769 243.407 72.5769Z" fill="#B76FEF"/>
<path d="M300.094 72.5769C307.244 72.5769 313.04 66.7807 313.04 59.6307C313.04 52.4808 307.244 46.6846 300.094 46.6846C292.944 46.6846 287.148 52.4808 287.148 59.6307C287.148 66.7807 292.944 72.5769 300.094 72.5769Z" fill="#B76FEF"/>
<path d="M16.9463 119.262C24.0963 119.262 29.8922 113.465 29.8922 106.316C29.8922 99.1656 24.0963 93.3694 16.9463 93.3694C9.79638 93.3694 4 99.1656 4 106.316C4 113.465 9.79638 119.262 16.9463 119.262Z" fill="#B76FEF"/>
<path d="M73.5372 119.262C80.6871 119.262 86.4835 113.466 86.4835 106.316C86.4835 99.1656 80.6871 93.3694 73.5372 93.3694C66.3872 93.3694 60.5913 99.1656 60.5913 106.316C60.5913 113.466 66.3872 119.262 73.5372 119.262Z" fill="#B76FEF"/>
<path d="M130.127 119.262C137.276 119.262 143.072 113.466 143.072 106.316C143.072 99.1656 137.276 93.3694 130.127 93.3694C122.977 93.3694 117.18 99.1656 117.18 106.316C117.18 113.466 122.977 119.262 130.127 119.262Z" fill="#B76FEF"/>
<path d="M186.815 119.262C193.965 119.262 199.761 113.466 199.761 106.316C199.761 99.1656 193.965 93.3694 186.815 93.3694C179.665 93.3694 173.869 99.1656 173.869 106.316C173.869 113.466 179.665 119.262 186.815 119.262Z" fill="#B76FEF"/>
<path d="M243.407 119.262C250.557 119.262 256.353 113.466 256.353 106.316C256.353 99.1656 250.557 93.3694 243.407 93.3694C236.257 93.3694 230.46 99.1656 230.46 106.316C230.46 113.466 236.257 119.262 243.407 119.262Z" fill="#B76FEF"/>
<path d="M300.094 119.262C307.244 119.262 313.04 113.466 313.04 106.316C313.04 99.1656 307.244 93.3694 300.094 93.3694C292.944 93.3694 287.148 99.1656 287.148 106.316C287.148 113.466 292.944 119.262 300.094 119.262Z" fill="#B76FEF"/>
<path d="M16.9463 165.946C24.0963 165.946 29.8922 160.15 29.8922 153C29.8922 145.85 24.0963 140.054 16.9463 140.054C9.79638 140.054 4 145.85 4 153C4 160.15 9.79638 165.946 16.9463 165.946Z" fill="#B76FEF"/>
<path d="M73.5372 165.946C80.6871 165.946 86.4835 160.15 86.4835 153C86.4835 145.85 80.6871 140.054 73.5372 140.054C66.3872 140.054 60.5913 145.85 60.5913 153C60.5913 160.15 66.3872 165.946 73.5372 165.946Z" fill="#B76FEF"/>
<path d="M130.127 165.946C137.276 165.946 143.072 160.15 143.072 153C143.072 145.85 137.276 140.054 130.127 140.054C122.977 140.054 117.18 145.85 117.18 153C117.18 160.15 122.977 165.946 130.127 165.946Z" fill="#B76FEF"/>
<path d="M186.815 165.946C193.965 165.946 199.761 160.15 199.761 153C199.761 145.85 193.965 140.054 186.815 140.054C179.665 140.054 173.869 145.85 173.869 153C173.869 160.15 179.665 165.946 186.815 165.946Z" fill="#B76FEF"/>
<path d="M243.407 165.946C250.557 165.946 256.353 160.15 256.353 153C256.353 145.85 250.557 140.054 243.407 140.054C236.257 140.054 230.46 145.85 230.46 153C230.46 160.15 236.257 165.946 243.407 165.946Z" fill="#B76FEF"/>
<path d="M300.094 165.946C307.244 165.946 313.04 160.15 313.04 153C313.04 145.85 307.244 140.054 300.094 140.054C292.944 140.054 287.148 145.85 287.148 153C287.148 160.15 292.944 165.946 300.094 165.946Z" fill="#B76FEF"/>
<path d="M16.9463 212.631C24.0963 212.631 29.8922 206.835 29.8922 199.685C29.8922 192.535 24.0963 186.739 16.9463 186.739C9.79638 186.739 4 192.535 4 199.685C4 206.835 9.79638 212.631 16.9463 212.631Z" fill="#B76FEF"/>
<path d="M73.5372 212.631C80.6871 212.631 86.4835 206.835 86.4835 199.685C86.4835 192.535 80.6871 186.738 73.5372 186.738C66.3872 186.738 60.5913 192.535 60.5913 199.685C60.5913 206.835 66.3872 212.631 73.5372 212.631Z" fill="#B76FEF"/>
<path d="M130.127 212.631C137.276 212.631 143.072 206.835 143.072 199.685C143.072 192.535 137.276 186.738 130.127 186.738C122.977 186.738 117.18 192.535 117.18 199.685C117.18 206.835 122.977 212.631 130.127 212.631Z" fill="#B76FEF"/>
<path d="M186.815 212.631C193.965 212.631 199.761 206.835 199.761 199.685C199.761 192.535 193.965 186.738 186.815 186.738C179.665 186.738 173.869 192.535 173.869 199.685C173.869 206.835 179.665 212.631 186.815 212.631Z" fill="#B76FEF"/>
<path d="M243.407 212.631C250.557 212.631 256.353 206.835 256.353 199.685C256.353 192.535 250.557 186.738 243.407 186.738C236.257 186.738 230.46 192.535 230.46 199.685C230.46 206.835 236.257 212.631 243.407 212.631Z" fill="#B76FEF"/>
<path d="M300.094 212.631C307.244 212.631 313.04 206.835 313.04 199.685C313.04 192.535 307.244 186.738 300.094 186.738C292.944 186.738 287.148 192.535 287.148 199.685C287.148 206.835 292.944 212.631 300.094 212.631Z" fill="#B76FEF"/>
<path d="M16.9463 259.315C24.0963 259.315 29.8922 253.519 29.8922 246.369C29.8922 239.219 24.0963 233.423 16.9463 233.423C9.79638 233.423 4 239.219 4 246.369C4 253.519 9.79638 259.315 16.9463 259.315Z" fill="#B76FEF"/>
<path d="M73.5372 259.315C80.6871 259.315 86.4835 253.519 86.4835 246.369C86.4835 239.219 80.6871 233.423 73.5372 233.423C66.3872 233.423 60.5913 239.219 60.5913 246.369C60.5913 253.519 66.3872 259.315 73.5372 259.315Z" fill="#B76FEF"/>
<path d="M130.127 259.315C137.276 259.315 143.072 253.519 143.072 246.369C143.072 239.219 137.276 233.423 130.127 233.423C122.977 233.423 117.18 239.219 117.18 246.369C117.18 253.519 122.977 259.315 130.127 259.315Z" fill="#B76FEF"/>
<path d="M186.815 259.315C193.965 259.315 199.761 253.519 199.761 246.369C199.761 239.219 193.965 233.423 186.815 233.423C179.665 233.423 173.869 239.219 173.869 246.369C173.869 253.519 179.665 259.315 186.815 259.315Z" fill="#B76FEF"/>
<path d="M243.407 259.315C250.557 259.315 256.353 253.519 256.353 246.369C256.353 239.219 250.557 233.423 243.407 233.423C236.257 233.423 230.46 239.219 230.46 246.369C230.46 253.519 236.257 259.315 243.407 259.315Z" fill="#B76FEF"/>
<path d="M300.094 259.315C307.244 259.315 313.04 253.519 313.04 246.369C313.04 239.219 307.244 233.423 300.094 233.423C292.944 233.423 287.148 239.219 287.148 246.369C287.148 253.519 292.944 259.315 300.094 259.315Z" fill="#B76FEF"/>
<path d="M16.9463 306C24.0963 306 29.8922 300.204 29.8922 293.054C29.8922 285.904 24.0963 280.108 16.9463 280.108C9.79638 280.108 4 285.904 4 293.054C4 300.204 9.79638 306 16.9463 306Z" fill="#B76FEF"/>
<path d="M73.5372 306C80.6871 306 86.4835 300.204 86.4835 293.054C86.4835 285.904 80.6871 280.108 73.5372 280.108C66.3872 280.108 60.5913 285.904 60.5913 293.054C60.5913 300.204 66.3872 306 73.5372 306Z" fill="#B76FEF"/>
<path d="M130.127 306C137.276 306 143.072 300.204 143.072 293.054C143.072 285.904 137.276 280.108 130.127 280.108C122.977 280.108 117.18 285.904 117.18 293.054C117.18 300.204 122.977 306 130.127 306Z" fill="#B76FEF"/>
<path d="M186.815 306C193.965 306 199.761 300.204 199.761 293.054C199.761 285.904 193.965 280.108 186.815 280.108C179.665 280.108 173.869 285.904 173.869 293.054C173.869 300.204 179.665 306 186.815 306Z" fill="#B76FEF"/>
<path d="M243.407 306C250.557 306 256.353 300.204 256.353 293.054C256.353 285.904 250.557 280.108 243.407 280.108C236.257 280.108 230.46 285.904 230.46 293.054C230.46 300.204 236.257 306 243.407 306Z" fill="#B76FEF"/>
<path d="M300.094 306C307.244 306 313.04 300.204 313.04 293.054C313.04 285.904 307.244 280.108 300.094 280.108C292.944 280.108 287.148 285.904 287.148 293.054C287.148 300.204 292.944 306 300.094 306Z" fill="#B76FEF"/>
</g>
<defs>
<filter id="filter0_d_101_785" x="0" y="0" width="317.04" height="314" filterUnits="userSpaceOnUse" color-interpolation-filters="sRGB">
<feFlood flood-opacity="0" result="BackgroundImageFix"/>
<feColorMatrix in="SourceAlpha" type="matrix" values="0 0 0 0 0 0 0 0 0 0 0 0 0 0 0 0 0 0 127 0" result="hardAlpha"/>
<feOffset dy="4"/>
<feGaussianBlur stdDeviation="2"/>
<feComposite in2="hardAlpha" operator="out"/>
<feColorMatrix type="matrix" values="0 0 0 0 0 0 0 0 0 0 0 0 0 0 0 0 0 0 0.25 0"/>
<feBlend mode="normal" in2="BackgroundImageFix" result="effect1_dropShadow_101_785"/>
<feBlend mode="normal" in="SourceGraphic" in2="effect1_dropShadow_101_785" result="shape"/>
</filter>
</defs>
</svg>
