<svg width="680" height="642" viewBox="0 0 680 642" fill="none" xmlns="http://www.w3.org/2000/svg">
<path d="M611.407 0C584.3 0 560.895 43.7067 550.053 106.892C537.827 74.1031 521.114 53.8762 502.682 53.8762C475.576 53.8762 452.171 97.5828 441.328 160.769C429.103 127.979 412.39 107.752 393.958 107.752C366.851 107.752 343.447 151.459 332.604 214.645C320.378 181.855 303.666 161.628 285.233 161.628C258.127 161.628 234.722 205.335 223.88 268.521C211.654 235.732 194.941 215.505 176.509 215.505C149.403 215.505 125.998 259.211 115.155 322.397C102.929 289.608 86.2169 269.381 67.7846 269.381C30.3592 269.381 0 352.644 0 455.386C0 558.128 30.3592 641.392 67.7846 641.392C94.8909 641.392 118.296 597.685 129.138 534.499C141.364 567.289 158.077 587.516 176.509 587.516C203.615 587.516 227.02 543.809 237.863 480.623C250.089 513.412 266.801 533.639 285.233 533.639C312.34 533.639 335.745 489.933 346.587 426.747C358.813 459.536 375.525 479.763 393.958 479.763C421.064 479.763 444.469 436.057 455.312 372.871C467.537 405.66 484.25 425.887 502.682 425.887C529.788 425.887 553.193 382.18 564.036 318.995C576.262 351.784 592.974 372.011 611.407 372.011C648.832 372.011 679.191 288.748 679.191 186.005C679.191 83.2631 648.869 0 611.407 0Z" fill="#B76FEF"/>
</svg>
